<svg width="43" height="43" viewBox="0 0 43 43" fill="none" xmlns="http://www.w3.org/2000/svg">
<circle cx="21.5" cy="21.5" r="21.5" fill="#1670F6"/>
<path d="M20.129 28.4847C18.7448 28.4847 17.3605 28.4742 15.9763 28.4886C15.178 28.497 14.3831 28.3826 13.6201 28.1494C13.1024 27.9906 12.6049 27.7729 12.1375 27.5007C11.5788 27.1791 11.0592 26.7946 10.5891 26.355C10.4186 26.1949 10.246 26.0321 10.1031 25.8485C9.75309 25.3988 9.41765 24.9383 9.15158 24.4317C8.73119 23.6343 8.46948 22.7869 8.34112 21.9008C8.25804 21.3214 8.26094 20.7367 8.31391 20.1565C8.37622 19.4855 8.5617 18.8407 8.78602 18.2042C8.95218 17.7302 9.2222 17.3125 9.45794 16.8763C9.62992 16.5587 9.86941 16.2836 10.096 16.0038C10.1969 15.8822 10.3067 15.7681 10.4246 15.6625C10.5361 15.5595 10.5393 15.4888 10.4385 15.371C10.1214 15 9.81997 14.6137 9.52316 14.2275C9.14639 13.7373 8.75673 13.2567 8.38951 12.7595C8.3272 12.675 8.27299 12.669 8.18305 12.7022C7.97829 12.7764 7.75306 12.7728 7.55086 12.6919C7.34867 12.611 7.18385 12.4587 7.08825 12.2643C6.89051 11.8653 7.03632 11.3986 7.4133 11.1456C7.79589 10.889 8.33551 11.0219 8.532 11.3123C8.63588 11.4594 8.71319 11.6233 8.76047 11.7967C8.77799 11.8599 8.7813 11.9261 8.77018 11.9907C8.75905 12.0553 8.73376 12.1167 8.69608 12.1705C8.63273 12.2618 8.66119 12.3175 8.73908 12.3766C9.18827 12.72 9.63664 13.0645 10.0842 13.4098C10.5704 13.784 11.0581 14.1566 11.5416 14.5341C11.6301 14.6032 11.696 14.6019 11.7909 14.5424C12.7357 13.9448 13.7616 13.5648 14.8734 13.4162C15.2847 13.3623 15.6992 13.336 16.114 13.3373C18.5816 13.3388 21.0491 13.3399 23.5166 13.3406C24.5859 13.3406 25.656 13.3334 26.7246 13.3391C27.5384 13.3435 28.3476 13.4036 29.1354 13.6258C29.6171 13.7614 30.078 13.952 30.5271 14.1714C30.7632 14.2868 30.9778 14.4375 31.1996 14.576C31.2771 14.6242 31.3325 14.6234 31.4032 14.5681C31.6152 14.4033 31.825 14.2349 32.036 14.0686C32.6022 13.6225 33.1805 13.1914 33.7537 12.7543C33.9199 12.6268 34.0861 12.4965 34.2551 12.3714C34.3145 12.3274 34.3293 12.2855 34.299 12.215C34.1681 11.9101 34.2042 11.589 34.4028 11.3557C34.7873 10.9024 35.4031 10.8595 35.8152 11.3597C36.0308 11.6207 36.0401 11.9111 35.9334 12.2045C35.8206 12.5136 35.5786 12.6958 35.2494 12.751C35.1013 12.776 34.9528 12.7696 34.8132 12.7014C34.7262 12.6587 34.661 12.6869 34.6055 12.7576L32.5833 15.3415C32.4379 15.527 32.4365 15.5535 32.5962 15.7235C33.0631 16.2209 33.4649 16.7748 33.792 17.3721C34.1243 17.9761 34.3376 18.6268 34.4896 19.2972C34.8174 20.7421 34.694 22.158 34.1974 23.5463C34.0204 24.0408 33.7803 24.509 33.5028 24.9543C33.1759 25.4786 32.7678 25.9389 32.3168 26.3642C31.8281 26.8252 31.351 27.2985 30.8696 27.7671C29.7377 28.8682 28.6064 29.9695 27.4757 31.0708C26.8609 31.6694 26.2458 32.2677 25.6304 32.8657C25.5316 32.9621 25.4184 33.0348 25.2773 32.9825C25.1332 32.9287 25.0619 32.8131 25.0509 32.6559C25.0397 32.5296 25.0379 32.4027 25.0455 32.2761C25.0619 32.07 25.0221 31.8619 25.0455 31.6602C25.095 31.2318 25.069 30.8035 25.0763 30.3755C25.084 29.9329 25.0844 29.4895 25.0873 29.0474C25.0912 28.9582 25.0794 28.8689 25.0524 28.7837C24.9917 28.6135 24.8532 28.5082 24.6754 28.4989C24.5994 28.4948 24.5234 28.4921 24.4469 28.4921C23.0068 28.4921 21.5672 28.4921 20.1279 28.4921L20.129 28.4847ZM21.4954 15.9166V15.9236H18.3502C17.9383 15.9236 17.5264 15.9259 17.1148 15.9222C16.7276 15.9187 16.3386 15.9104 15.9551 15.9548C15.1273 16.0479 14.3391 16.3567 13.6704 16.8497C12.0503 18.0321 11.3512 19.6415 11.5988 21.5985C11.8015 23.2025 12.6653 24.4326 14.0864 25.2533C14.7719 25.6496 15.5113 25.8868 16.3089 25.8991C17.1287 25.9119 17.9497 25.8961 18.7689 25.8958C21.3818 25.895 23.9947 25.8956 26.6075 25.8977C26.8226 25.8977 27.0368 25.8948 27.2474 25.8565C28.3125 25.6663 29.2372 25.1956 29.992 24.4286C31.2258 23.1751 31.6917 21.65 31.3514 19.9514C30.9944 18.1689 29.9073 16.9204 28.1902 16.2422C27.7974 16.0873 27.3884 15.9665 26.966 15.9492C26.2753 15.9208 25.5833 15.9203 24.8916 15.9175C23.7586 15.9133 22.627 15.9166 21.4954 15.9166Z" fill="white"/>
<path d="M16.6451 18.123C16.2457 18.5947 16.2297 19.0812 16.6036 19.4016C16.9579 19.7056 17.4776 19.7344 17.903 19.1863C18.3473 19.8682 18.2785 21.0372 17.6159 21.7508C16.7228 22.7136 15.3754 22.6808 14.5388 22.0455C13.659 21.3778 13.3723 20.0878 13.935 19.1544C14.5725 18.097 15.6612 17.8131 16.6451 18.123Z" fill="white"/>
<path d="M27.7816 18.1349C27.3801 18.632 27.3957 19.1117 27.796 19.4385C28.1906 19.7608 28.7722 19.6312 29.0362 19.2026C29.3847 19.5995 29.5471 20.7586 28.8773 21.623C28.1646 22.5431 26.8372 22.7793 25.8562 22.1557C24.8611 21.5231 24.5099 20.2393 25.0582 19.21C25.6379 18.1222 26.8897 17.7945 27.7816 18.1349Z" fill="white"/>
<path d="M24.1194 24.6646C24.1165 24.7892 24.0649 24.9078 23.9754 24.9953C23.8859 25.0828 23.7656 25.1324 23.64 25.1334C23.5768 25.1331 23.5143 25.1204 23.4562 25.0959C23.3981 25.0714 23.3454 25.0356 23.3014 24.9906C23.2574 24.9457 23.2229 24.8925 23.1998 24.8341C23.1768 24.7758 23.1657 24.7134 23.1673 24.6508C23.1727 24.3856 23.3789 24.1896 23.6493 24.1921C23.7115 24.1922 23.7731 24.2046 23.8305 24.2285C23.8878 24.2524 23.9399 24.2873 23.9836 24.3312C24.0273 24.3751 24.0618 24.4272 24.0851 24.4844C24.1084 24.5417 24.12 24.6029 24.1194 24.6646Z" fill="white"/>
<path d="M19.348 24.1921C19.618 24.1921 19.8228 24.3922 19.8238 24.6559C19.8249 24.7186 19.8133 24.7809 19.7898 24.8391C19.7662 24.8973 19.7311 24.9502 19.6866 24.9947C19.642 25.0392 19.589 25.0744 19.5305 25.0982C19.472 25.1221 19.4093 25.134 19.3461 25.1334C19.089 25.132 18.8696 24.9131 18.8713 24.6594C18.8716 24.5977 18.8842 24.5366 18.9083 24.4797C18.9324 24.4227 18.9677 24.3711 19.0119 24.3277C19.0562 24.2843 19.1087 24.2499 19.1664 24.2267C19.224 24.2034 19.2857 24.1917 19.348 24.1921Z" fill="white"/>
<path d="M21.4919 24.1921C21.5542 24.1907 21.6161 24.2017 21.674 24.2242C21.732 24.2467 21.7849 24.2804 21.8297 24.3233C21.8745 24.3662 21.9103 24.4175 21.9349 24.4742C21.9596 24.5309 21.9728 24.5919 21.9736 24.6537C21.9779 24.9117 21.7572 25.133 21.4959 25.1334C21.2406 25.1334 21.0211 24.917 21.0181 24.6617C21.0186 24.5372 21.0687 24.418 21.1575 24.33C21.2462 24.2421 21.3665 24.1925 21.4919 24.1921Z" fill="white"/>
</svg>
